<svg width="108" height="29" viewBox="0 0 108 29" fill="none" xmlns="http://www.w3.org/2000/svg">
<g id="Ares">
<g id="Ar&#195;&#168;s">
<path id="Vector" d="M84.2441 28.288C82.5881 28.288 80.9921 28.096 79.4561 27.712C77.9441 27.304 76.7441 26.8 75.8561 26.2L77.7281 22.168C78.6161 22.72 79.6601 23.176 80.8601 23.536C82.0841 23.872 83.2841 24.04 84.4601 24.04C85.7561 24.04 86.6681 23.884 87.1961 23.572C87.7481 23.26 88.0241 22.828 88.0241 22.276C88.0241 21.82 87.8081 21.484 87.3761 21.268C86.9681 21.028 86.4161 20.848 85.7201 20.728C85.0241 20.608 84.2561 20.488 83.4161 20.368C82.6001 20.248 81.7721 20.092 80.9321 19.9C80.0921 19.684 79.3241 19.372 78.6281 18.964C77.9321 18.556 77.3681 18.004 76.9361 17.308C76.5281 16.612 76.3241 15.712 76.3241 14.608C76.3241 13.384 76.6721 12.304 77.3681 11.368C78.0881 10.432 79.1201 9.69999 80.4641 9.172C81.8081 8.62 83.4161 8.34399 85.2881 8.34399C86.6081 8.34399 87.9521 8.48799 89.3201 8.77599C90.6881 9.06399 91.8281 9.48399 92.7401 10.036L90.8681 14.032C89.9321 13.48 88.9841 13.108 88.0241 12.916C87.0881 12.7 86.1761 12.592 85.2881 12.592C84.0401 12.592 83.1281 12.76 82.5521 13.096C81.9761 13.432 81.6881 13.864 81.6881 14.392C81.6881 14.872 81.8921 15.232 82.3001 15.472C82.7321 15.712 83.2961 15.904 83.9921 16.048C84.6881 16.192 85.4441 16.324 86.2601 16.444C87.1001 16.54 87.9401 16.696 88.7801 16.912C89.6201 17.128 90.3761 17.44 91.0481 17.848C91.7441 18.232 92.3081 18.772 92.7401 19.468C93.1721 20.14 93.3881 21.028 93.3881 22.132C93.3881 23.332 93.0281 24.4 92.3081 25.336C91.5881 26.248 90.5441 26.968 89.1761 27.496C87.8321 28.024 86.1881 28.288 84.2441 28.288Z" fill="white"/>
<path id="Vector_2" d="M61.7492 28.288C59.5412 28.288 57.5972 27.856 55.9172 26.992C54.2612 26.128 52.9772 24.952 52.0652 23.464C51.1532 21.952 50.6972 20.236 50.6972 18.316C50.6972 16.372 51.1412 14.656 52.0292 13.168C52.9412 11.656 54.1772 10.48 55.7372 9.63999C57.2972 8.77599 59.0612 8.34399 61.0292 8.34399C62.9252 8.34399 64.6292 8.75199 66.1412 9.56799C67.6772 10.36 68.8892 11.512 69.7772 13.024C70.6652 14.512 71.1092 16.3 71.1092 18.388C71.1092 18.604 71.0972 18.856 71.0732 19.144C71.0492 19.408 71.0252 19.66 71.0012 19.9H55.2692V16.624H68.0492L65.8892 17.596C65.8892 16.588 65.6852 15.712 65.2772 14.968C64.8692 14.224 64.3052 13.648 63.5852 13.24C62.8652 12.808 62.0252 12.592 61.0652 12.592C60.1052 12.592 59.2532 12.808 58.5092 13.24C57.7892 13.648 57.2252 14.236 56.8172 15.004C56.4092 15.748 56.2052 16.636 56.2052 17.668V18.532C56.2052 19.588 56.4332 20.524 56.8892 21.34C57.3692 22.132 58.0292 22.744 58.8692 23.176C59.7332 23.584 60.7412 23.788 61.8932 23.788C62.9252 23.788 63.8252 23.632 64.5932 23.32C65.3852 23.008 66.1052 22.54 66.7532 21.916L69.7412 25.156C68.8532 26.164 67.7372 26.944 66.3932 27.496C65.0492 28.024 63.5012 28.288 61.7492 28.288ZM59.8052 6.14799L53.2892 0.963989H59.3372L64.1972 6.14799H59.8052Z" fill="white"/>
<path id="Vector_3" d="M34.0345 28V8.63199H39.3985V14.104L38.6425 12.52C39.2185 11.152 40.1425 10.12 41.4145 9.42399C42.6865 8.70399 44.2345 8.34399 46.0585 8.34399V13.528C45.8185 13.504 45.6025 13.492 45.4105 13.492C45.2185 13.468 45.0145 13.456 44.7985 13.456C43.2625 13.456 42.0145 13.9 41.0545 14.788C40.1185 15.652 39.6505 17.008 39.6505 18.856V28H34.0345Z" fill="white"/>
<path id="Vector_4" d="M0.675995 28L11.908 2.79999H17.668L28.936 28H22.816L13.6 5.75199H15.904L6.652 28H0.675995ZM6.29199 22.6L7.84 18.172H20.8L22.384 22.6H6.29199Z" fill="white"/>
</g>
<path id="Rectangle 1" d="M98 20C98 18.8954 98.8954 18 100 18H106C107.105 18 108 18.8954 108 20V26C108 27.1046 107.105 28 106 28H100C98.8954 28 98 27.1046 98 26V20Z" fill="#FF4C60"/>
</g>
</svg>
